<svg width="52" height="87" viewBox="0 0 52 87" fill="none" xmlns="http://www.w3.org/2000/svg">
<rect x="1.5" y="1.5" width="49" height="84" rx="24.5" stroke="black" stroke-width="3"/>
<path d="M27.5 44C27.5 43.1716 26.8284 42.5 26 42.5C25.1716 42.5 24.5 43.1716 24.5 44L27.5 44ZM24.9393 69.0607C25.5251 69.6464 26.4749 69.6464 27.0607 69.0607L36.6066 59.5147C37.1924 58.9289 37.1924 57.9792 36.6066 57.3934C36.0208 56.8076 35.0711 56.8076 34.4853 57.3934L26 65.8787L17.5147 57.3934C16.9289 56.8076 15.9792 56.8076 15.3934 57.3934C14.8076 57.9792 14.8076 58.9289 15.3934 59.5147L24.9393 69.0607ZM24.5 44L24.5 68L27.5 68L27.5 44L24.5 44Z" fill="black"/>
</svg>
